<svg width="400" height="98" viewBox="0 0 400 98" fill="none" xmlns="http://www.w3.org/2000/svg">
<g opacity="0.45">
<path opacity="0.03" d="M44.9912 1.66406H355.009C379.822 1.66406 400 23.1324 400 49.53C400 75.9275 379.822 97.3959 355.009 97.3959H44.9912C20.1784 97.3959 0 75.9354 0 49.53C0 23.1245 20.1784 1.66406 44.9912 1.66406Z" fill="#1D1D1B"/>
<path opacity="0.06" d="M44.9912 1.66406H355.009C379.822 1.66406 400 23.0528 400 49.3468C400 75.6408 379.822 97.0296 355.009 97.0296H44.9912C20.1784 97.0375 0 75.6488 0 49.3548C0 23.0608 20.1784 1.66406 44.9912 1.66406Z" fill="#1D1D1B"/>
<path opacity="0.09" d="M44.9912 1.66406H355.009C379.822 1.66406 400 22.9732 400 49.1637C400 75.3541 379.822 96.6633 355.009 96.6633H44.9912C20.1784 96.6712 0 75.3701 0 49.1716C0 22.9732 20.1784 1.66406 44.9912 1.66406Z" fill="#1D1D1B"/>
<path opacity="0.12" d="M44.9912 1.66406H355.009C379.822 1.66406 400 22.8856 400 48.9885C400 75.0914 379.822 96.3049 355.009 96.3049H44.9912C20.1784 96.3049 0 75.0834 0 48.9885C0 22.8936 20.1784 1.66406 44.9912 1.66406Z" fill="#1D1D1B"/>
<path opacity="0.15" d="M44.9912 1.66406H355.009C379.822 1.66406 400 22.806 400 48.8053C400 74.8047 379.822 95.9466 355.009 95.9466H44.9912C20.1784 95.9386 0 74.8047 0 48.8053C0 22.806 20.1784 1.66406 44.9912 1.66406Z" fill="#1D1D1B"/>
<path opacity="0.19" d="M44.9912 1.66406H355.009C379.822 1.66406 400 22.7263 400 48.6222C400 74.518 379.822 95.5803 355.009 95.5803H44.9912C20.1784 95.5803 0 74.518 0 48.6222C0 22.7263 20.1784 1.66406 44.9912 1.66406Z" fill="#1D1D1B"/>
<path opacity="0.22" d="M44.9912 1.66406H355.009C379.822 1.66406 400 22.6467 400 48.439C400 74.2313 379.822 95.214 355.009 95.214H44.9912C20.1784 95.214 0 74.2393 0 48.439C0 22.6387 20.1784 1.66406 44.9912 1.66406Z" fill="#1D1D1B"/>
<path opacity="0.25" d="M44.9912 1.66406H355.009C379.822 1.66406 400 22.5591 400 48.2559C400 73.9526 379.822 94.8477 355.009 94.8477H44.9912C20.1784 94.8477 0 73.9526 0 48.2559C0 22.5591 20.1784 1.66406 44.9912 1.66406Z" fill="#1D1D1B"/>
<path opacity="0.28" d="M44.9912 1.66406H355.009C379.822 1.66406 400 22.4795 400 48.0727C400 73.666 379.822 94.4814 355.009 94.4814H44.9912C20.1784 94.4894 0 73.6739 0 48.0727C0 22.4715 20.1784 1.66406 44.9912 1.66406Z" fill="#1D1D1B"/>
<path opacity="0.31" d="M44.9912 1.66406H355.009C379.822 1.66406 400 22.3998 400 47.8896C400 73.3793 379.822 94.1151 355.009 94.1151H44.9912C20.1784 94.1231 0 73.3873 0 47.8975C0 22.4078 20.1784 1.66406 44.9912 1.66406Z" fill="#1D1D1B"/>
<path opacity="0.34" d="M44.9912 1.66406H355.009C379.822 1.66406 400 22.3202 400 47.7064C400 73.0926 379.822 93.7567 355.009 93.7567H44.9912C20.1784 93.7567 0 73.1086 0 47.7144C0 22.3202 20.1784 1.66406 44.9912 1.66406Z" fill="#1D1D1B"/>
<path opacity="0.37" d="M44.9912 1.66406H355.009C379.822 1.66406 400 22.2326 400 47.5312C400 72.8298 379.822 93.3984 355.009 93.3984H44.9912C20.1784 93.3984 0 72.8219 0 47.5312C0 22.2406 20.1784 1.66406 44.9912 1.66406Z" fill="#1D1D1B"/>
<path opacity="0.4" d="M44.9912 1.66406H355.009C379.822 1.66406 400 22.153 400 47.3481C400 72.5432 379.822 93.0321 355.009 93.0321H44.9912C20.1784 93.0321 0 72.5432 0 47.3481C0 22.153 20.1784 1.66406 44.9912 1.66406Z" fill="#1D1D1B"/>
<path opacity="0.43" d="M44.9912 1.66406H355.009C379.822 1.66406 400 22.0734 400 47.1649C400 72.2565 379.822 92.6658 355.009 92.6658H44.9912C20.1784 92.6658 0 72.2565 0 47.1649C0 22.0734 20.1784 1.66406 44.9912 1.66406Z" fill="#1D1D1B"/>
<path opacity="0.46" d="M44.9912 1.66406H355.009C379.822 1.66406 400 21.9858 400 46.9818C400 71.9778 379.822 92.2995 355.009 92.2995H44.9912C20.1784 92.2995 0 71.9778 0 46.9818C0 21.9858 20.1784 1.66406 44.9912 1.66406Z" fill="#1D1D1B"/>
<path opacity="0.5" d="M44.9912 1.66406H355.009C379.822 1.66406 400 21.9061 400 46.7986C400 71.6911 379.822 91.9332 355.009 91.9332H44.9912C20.1784 91.9412 0 71.6911 0 46.7986C0 21.9061 20.1784 1.66406 44.9912 1.66406Z" fill="#1D1D1B"/>
<path opacity="0.53" d="M44.9912 1.66406H355.009C379.822 1.66406 400 21.8265 400 46.6155C400 71.4045 379.822 91.5749 355.009 91.5749H44.9912C20.1784 91.5749 0 71.4124 0 46.6155C0 21.8185 20.1784 1.66406 44.9912 1.66406Z" fill="#1D1D1B"/>
<path opacity="0.56" d="M44.9912 1.66406H355.009C379.822 1.66406 400 21.7469 400 46.4323C400 71.1178 379.822 91.2086 355.009 91.2086H44.9912C20.1784 91.2086 0 71.1258 0 46.4323C0 21.7389 20.1784 1.66406 44.9912 1.66406Z" fill="#1D1D1B"/>
<path opacity="0.59" d="M44.9912 1.66406H355.009C379.822 1.66406 400 21.6593 400 46.2492C400 70.8391 379.822 90.8423 355.009 90.8423H44.9912C20.1784 90.8502 0 70.8471 0 46.2571C0 21.6672 20.1784 1.66406 44.9912 1.66406Z" fill="#1D1D1B"/>
<path opacity="0.62" d="M44.9912 1.66406H355.009C379.822 1.66406 400 21.5797 400 46.066C400 70.5524 379.822 90.476 355.009 90.476H44.9912C20.1784 90.4839 0 70.5604 0 46.074C0 21.5876 20.1784 1.66406 44.9912 1.66406Z" fill="#1D1D1B"/>
<path opacity="0.65" d="M44.9912 1.66406H355.009C379.822 1.66406 400 21.5 400 45.8909C400 70.2817 379.822 90.1176 355.009 90.1176H44.9912C20.1784 90.1176 0 70.2817 0 45.8909C0 21.5 20.1784 1.66406 44.9912 1.66406Z" fill="#1D1D1B"/>
</g>
<path d="M44.9912 0H355.009C379.822 0 400 20.1863 400 44.9912C400 69.7961 379.822 89.9825 355.009 89.9825H44.9912C20.1784 89.9825 0 69.7961 0 44.9912C0 20.1863 20.1784 0 44.9912 0Z" fill="#D37300"/>
<path d="M44.991 88.318H355.009C378.938 88.318 398.336 68.92 398.336 44.991C398.336 21.0621 378.938 1.66406 355.009 1.66406H44.991C21.0621 1.66406 1.66406 21.0621 1.66406 44.991C1.66406 68.92 21.0621 88.318 44.991 88.318Z" fill="url(#paint0_linear_14_275)"/>
<path d="M158.549 45.715C158.549 38.61 154.874 33.185 147.559 33.185C140.594 33.185 136.359 38.435 136.359 45.925C136.359 53.45 140.314 58.455 147.349 58.455C153.929 58.455 158.549 53.59 158.549 45.715ZM152.599 45.82C152.599 51.245 150.604 53.73 147.524 53.73C144.199 53.73 142.309 51.315 142.309 45.785C142.309 40.605 144.374 37.91 147.419 37.91C150.744 37.91 152.599 40.185 152.599 45.82ZM181.157 57.545C181.157 57.37 181.087 57.16 180.947 56.95L175.207 48.76V48.69C178.042 47.255 179.372 44.665 179.372 41.55C179.372 39.66 178.742 37.735 177.482 36.335C175.347 33.955 171.777 33.71 168.802 33.71H163.482C162.537 33.71 162.327 33.955 162.327 34.9V56.985C162.327 57.685 162.607 58 163.307 58H166.947C167.647 58 167.892 57.58 167.892 57.02V49.775H170.062L174.927 57.23C175.312 57.825 175.802 58 176.502 58H180.597C180.877 58 181.157 57.86 181.157 57.545ZM173.772 41.655C173.772 44.245 172.197 45.61 169.642 45.61H167.892V37.91H169.257C171.882 37.91 173.772 38.89 173.772 41.655ZM204.959 57.3C204.959 57.16 204.924 56.985 204.854 56.775L196.349 34.48C196.174 34.025 195.789 33.71 195.089 33.71H191.484C190.819 33.71 190.504 34.06 190.294 34.585L181.964 57.02C181.894 57.16 181.894 57.3 181.894 57.44C181.894 57.755 182.069 58 182.454 58H186.444C187.074 58 187.354 57.615 187.494 57.16L188.894 52.96H190.119H196.279H197.539L198.939 57.02C199.149 57.615 199.464 58 200.304 58H204.224C204.714 58 204.959 57.72 204.959 57.3ZM196.034 48.76H190.294L192.499 41.9C192.744 41.165 192.954 40.465 193.129 39.835H193.199C193.374 40.43 193.584 41.095 193.829 41.865L196.034 48.76ZM223.331 34.515C223.331 34.48 223.331 34.48 223.331 34.445C223.331 34.41 223.331 34.375 223.331 34.34C223.331 33.99 223.016 33.71 222.456 33.71H208.526C207.931 33.71 207.616 34.095 207.616 34.69V56.915C207.616 57.79 207.966 58 208.771 58H212.201C212.866 58 213.181 57.685 213.181 57.02V47.955H221.161C221.826 47.955 222.176 47.64 222.176 46.94V44.385C222.176 43.825 221.896 43.44 221.126 43.44H213.181V38.225H221.651C222.491 38.225 222.946 38.085 223.016 37.35L223.331 34.515ZM237.633 36.37V34.48C237.633 34.095 237.283 33.71 236.758 33.71H227.378C226.888 33.71 226.608 34.095 226.608 34.515V36.37C226.608 36.86 226.888 37.28 227.448 37.28H229.303V54.43H227.693C227.168 54.43 226.818 54.71 226.818 55.34V57.23C226.818 57.615 227.168 58 227.693 58H236.688C237.178 58 237.458 57.615 237.458 57.195V55.34C237.458 54.85 237.178 54.43 236.618 54.43H234.868V37.28H236.758C237.283 37.28 237.633 37 237.633 36.37ZM263.524 56.915V34.795C263.524 34.2 263.454 33.71 262.544 33.71H259.149C258.449 33.71 258.064 33.955 258.064 34.725V48.445H257.994L247.564 34.445C247.179 33.92 246.829 33.71 246.129 33.71H243.189C242.454 33.71 242.034 33.885 242.034 34.795V56.985C242.034 57.825 242.384 58 243.189 58H246.444C247.144 58 247.494 57.72 247.494 56.95V43.335H247.564L257.994 57.23C258.379 57.755 258.904 58 259.534 58H262.509C263.139 58 263.524 57.825 263.524 56.915Z" fill="white"/>
<g style="mix-blend-mode:soft-light" opacity="0.65">
<path d="M19.3267 10.1447C26.5173 4.83336 35.3722 1.66406 44.9916 1.66406H355.009C378.938 1.66406 398.336 21.0621 398.336 44.991C398.336 53.4956 395.852 61.3949 391.623 68.0839C371.485 60.4792 350.661 53.4159 329.225 46.9897C234.871 18.6891 96.7355 6.92764 19.3267 10.1447Z" fill="white"/>
</g>
<path d="M45.327 3.99873H355.344C378.127 3.99873 396.673 22.5367 396.673 45.327C396.673 68.1172 378.135 86.6552 355.344 86.6552H45.327C22.5447 86.6552 3.99873 68.1172 3.99873 45.327C3.99873 22.5367 22.5447 3.99873 45.327 3.99873ZM45.327 2C21.398 2 2 21.398 2 45.327C2 69.2559 21.398 88.6539 45.327 88.6539H355.344C379.273 88.6539 398.671 69.2559 398.671 45.327C398.671 21.398 379.273 2 355.344 2H45.327Z" fill="url(#paint1_linear_14_275)"/>
<path d="M354.173 22.0815C366.826 22.0815 377.083 32.3379 377.083 44.9912C377.083 57.6445 366.826 67.9009 354.173 67.9009C341.52 67.9009 331.271 57.6365 331.271 44.9912C331.271 32.3459 341.527 22.0815 354.173 22.0815ZM354.173 18.7529C339.712 18.7529 327.935 30.5223 327.935 44.9912C327.935 59.46 339.712 71.2294 354.173 71.2294C368.634 71.2294 380.411 59.46 380.411 44.9912C380.411 30.5223 368.634 18.7529 354.173 18.7529Z" fill="url(#paint2_linear_14_275)"/>
<path d="M350.51 61.0287C349.132 61.0287 347.754 60.5031 346.695 59.452C344.593 57.3498 344.593 53.9336 346.695 51.8314L353.918 44.6089L346.695 37.3864C344.593 35.2842 344.593 31.868 346.695 29.7658C348.806 27.6556 352.214 27.6556 354.324 29.7658L365.353 40.7946C367.455 42.9048 367.455 46.313 365.353 48.4152L354.324 59.4441C353.265 60.4952 351.895 61.0207 350.51 61.0207V61.0287Z" fill="white"/>
<path d="M353.918 45.8909V44.6089L346.696 51.8314C345.477 53.0418 344.992 54.6981 345.175 56.2827C345.31 55.1281 345.804 53.9973 346.696 53.1134L353.918 45.8909Z" fill="#B1B1B1"/>
<path d="M354.324 31.0478L365.353 42.0766C366.245 42.9685 366.731 44.0913 366.874 45.2459C367.065 43.6613 366.571 42.0129 365.353 40.7946L354.324 29.7658C352.214 27.6556 348.806 27.6556 346.696 29.7658C345.477 30.9761 344.992 32.6325 345.175 34.2171C345.31 33.0625 345.804 31.9317 346.696 31.0478C348.806 28.9376 352.214 28.9376 354.324 31.0478Z" fill="#B1B1B1"/>
<defs>
<linearGradient id="paint0_linear_14_275" x1="200" y1="4.84928" x2="200" y2="86.4307" gradientUnits="userSpaceOnUse">
<stop stop-color="#FFD003"/>
<stop offset="1" stop-color="#F08616"/>
</linearGradient>
<linearGradient id="paint1_linear_14_275" x1="200.336" y1="2.84408" x2="200.336" y2="87.0056" gradientUnits="userSpaceOnUse">
<stop stop-color="white"/>
<stop offset="1" stop-color="white"/>
</linearGradient>
<linearGradient id="paint2_linear_14_275" x1="354.173" y1="17.67" x2="354.173" y2="72.6867" gradientUnits="userSpaceOnUse">
<stop stop-color="#F08616"/>
<stop offset="1" stop-color="#FFD003"/>
</linearGradient>
</defs>
</svg>
